<mxfile host="65bd71144e">
    <diagram id="cyE6LtorlN1fh9DOE9SZ" name="Page-1">
        <mxGraphModel dx="1189" dy="816" grid="1" gridSize="10" guides="1" tooltips="1" connect="1" arrows="1" fold="1" page="1" pageScale="1" pageWidth="850" pageHeight="1100" math="0" shadow="0">
            <root>
                <mxCell id="0"/>
                <mxCell id="1" parent="0"/>
                <mxCell id="2" value="" style="swimlane;childLayout=stackLayout;resizeParent=1;resizeParentMax=0;startSize=20;html=1;" parent="1" vertex="1">
                    <mxGeometry x="180.00000000000045" y="50" width="780" height="480" as="geometry"/>
                </mxCell>
                <mxCell id="3" value="Controller" style="swimlane;startSize=20;html=1;" parent="2" vertex="1">
                    <mxGeometry y="20" width="120" height="460" as="geometry"/>
                </mxCell>
                <mxCell id="10" style="edgeStyle=none;html=1;" parent="3" source="4" target="9" edge="1">
                    <mxGeometry relative="1" as="geometry"/>
                </mxCell>
                <mxCell id="4" value="Initialize" style="rounded=0;whiteSpace=wrap;html=1;" parent="3" vertex="1">
                    <mxGeometry x="10" y="40" width="100" height="40" as="geometry"/>
                </mxCell>
                <mxCell id="104" style="edgeStyle=orthogonalEdgeStyle;html=1;" edge="1" parent="3" source="9" target="103">
                    <mxGeometry relative="1" as="geometry"/>
                </mxCell>
                <mxCell id="9" value="AddCustomer" style="rounded=0;whiteSpace=wrap;html=1;" parent="3" vertex="1">
                    <mxGeometry x="9.999999999999545" y="110" width="100" height="40" as="geometry"/>
                </mxCell>
                <mxCell id="103" value="ShowCustomer" style="rounded=0;whiteSpace=wrap;html=1;" vertex="1" parent="3">
                    <mxGeometry x="9.999999999999545" y="390" width="100" height="40" as="geometry"/>
                </mxCell>
                <mxCell id="5" value="Business Logic" style="swimlane;startSize=20;html=1;" parent="2" vertex="1">
                    <mxGeometry x="120" y="20" width="240" height="460" as="geometry"/>
                </mxCell>
                <mxCell id="36" style="edgeStyle=orthogonalEdgeStyle;html=1;" edge="1" parent="5" source="11" target="12">
                    <mxGeometry relative="1" as="geometry"/>
                </mxCell>
                <mxCell id="39" style="edgeStyle=orthogonalEdgeStyle;html=1;" edge="1" parent="5" source="11" target="38">
                    <mxGeometry relative="1" as="geometry">
                        <Array as="points">
                            <mxPoint x="60" y="190"/>
                        </Array>
                    </mxGeometry>
                </mxCell>
                <mxCell id="71" style="edgeStyle=orthogonalEdgeStyle;html=1;" edge="1" parent="5" source="11" target="70">
                    <mxGeometry relative="1" as="geometry">
                        <Array as="points">
                            <mxPoint x="60" y="295"/>
                        </Array>
                    </mxGeometry>
                </mxCell>
                <mxCell id="11" value="AddCustomer" style="rounded=0;whiteSpace=wrap;html=1;" parent="5" vertex="1">
                    <mxGeometry x="9.999999999999545" y="110" width="100" height="40" as="geometry"/>
                </mxCell>
                <mxCell id="12" value="CheckIfExists" style="rounded=0;whiteSpace=wrap;html=1;" parent="5" vertex="1">
                    <mxGeometry x="129.99999999999955" y="110" width="100" height="40" as="geometry"/>
                </mxCell>
                <mxCell id="38" value="AddCustomer" style="rounded=0;whiteSpace=wrap;html=1;" vertex="1" parent="5">
                    <mxGeometry x="129.99999999999955" y="170" width="100" height="40" as="geometry"/>
                </mxCell>
                <mxCell id="70" value="SetPrice" style="rounded=0;whiteSpace=wrap;html=1;" vertex="1" parent="5">
                    <mxGeometry x="129.99999999999955" y="285" width="100" height="40" as="geometry"/>
                </mxCell>
                <mxCell id="33" style="edgeStyle=orthogonalEdgeStyle;html=1;" edge="1" parent="2" source="19" target="11">
                    <mxGeometry relative="1" as="geometry">
                        <Array as="points">
                            <mxPoint x="180" y="70"/>
                        </Array>
                    </mxGeometry>
                </mxCell>
                <mxCell id="94" value="Repository" style="swimlane;startSize=20;html=1;" vertex="1" parent="2">
                    <mxGeometry x="360" y="20" width="130" height="460" as="geometry"/>
                </mxCell>
                <mxCell id="35" value="SelectCustomer" style="rounded=0;whiteSpace=wrap;html=1;" vertex="1" parent="94">
                    <mxGeometry x="14.999999999999545" y="110" width="100" height="40" as="geometry"/>
                </mxCell>
                <mxCell id="102" style="edgeStyle=orthogonalEdgeStyle;html=1;" edge="1" parent="94" source="40" target="101">
                    <mxGeometry relative="1" as="geometry"/>
                </mxCell>
                <mxCell id="40" value="CreateCustomer" style="rounded=0;whiteSpace=wrap;html=1;" vertex="1" parent="94">
                    <mxGeometry x="14.999999999999545" y="170" width="100" height="40" as="geometry"/>
                </mxCell>
                <mxCell id="72" value="CreatePrice" style="rounded=0;whiteSpace=wrap;html=1;" vertex="1" parent="94">
                    <mxGeometry x="14.999999999999545" y="285" width="100" height="40" as="geometry"/>
                </mxCell>
                <mxCell id="101" value="SendInitialMessage" style="rounded=0;whiteSpace=wrap;html=1;" vertex="1" parent="94">
                    <mxGeometry x="9.999999999999545" y="230" width="110" height="40" as="geometry"/>
                </mxCell>
                <mxCell id="6" value="Model" style="swimlane;startSize=20;html=1;" parent="2" vertex="1">
                    <mxGeometry x="490" y="20" width="290" height="460" as="geometry"/>
                </mxCell>
                <mxCell id="19" value="customer" style="swimlane;fontStyle=0;childLayout=stackLayout;horizontal=1;startSize=30;horizontalStack=0;resizeParent=1;resizeParentMax=0;resizeLast=0;collapsible=1;marginBottom=0;whiteSpace=wrap;html=1;fontSize=12;" vertex="1" parent="6">
                    <mxGeometry x="130" y="30" width="150" height="390" as="geometry"/>
                </mxCell>
                <mxCell id="20" value="id : int" style="text;strokeColor=none;fillColor=none;align=left;verticalAlign=middle;spacingLeft=4;spacingRight=4;overflow=hidden;points=[[0,0.5],[1,0.5]];portConstraint=eastwest;rotatable=0;whiteSpace=wrap;html=1;fontSize=12;fontStyle=1" vertex="1" parent="19">
                    <mxGeometry y="30" width="150" height="30" as="geometry"/>
                </mxCell>
                <mxCell id="21" value="device_manager_id : int" style="text;strokeColor=none;fillColor=none;align=left;verticalAlign=middle;spacingLeft=4;spacingRight=4;overflow=hidden;points=[[0,0.5],[1,0.5]];portConstraint=eastwest;rotatable=0;whiteSpace=wrap;html=1;fontSize=12;fontStyle=0" vertex="1" parent="19">
                    <mxGeometry y="60" width="150" height="30" as="geometry"/>
                </mxCell>
                <mxCell id="22" value="customer_advisor_id : int" style="text;strokeColor=none;fillColor=none;align=left;verticalAlign=middle;spacingLeft=4;spacingRight=4;overflow=hidden;points=[[0,0.5],[1,0.5]];portConstraint=eastwest;rotatable=0;whiteSpace=wrap;html=1;fontSize=12;fontStyle=0" vertex="1" parent="19">
                    <mxGeometry y="90" width="150" height="30" as="geometry"/>
                </mxCell>
                <mxCell id="23" value="zipcode : string" style="text;strokeColor=none;fillColor=none;align=left;verticalAlign=middle;spacingLeft=4;spacingRight=4;overflow=hidden;points=[[0,0.5],[1,0.5]];portConstraint=eastwest;rotatable=0;whiteSpace=wrap;html=1;fontSize=12;fontStyle=0" vertex="1" parent="19">
                    <mxGeometry y="120" width="150" height="30" as="geometry"/>
                </mxCell>
                <mxCell id="24" value="housenumber : int" style="text;strokeColor=none;fillColor=none;align=left;verticalAlign=middle;spacingLeft=4;spacingRight=4;overflow=hidden;points=[[0,0.5],[1,0.5]];portConstraint=eastwest;rotatable=0;whiteSpace=wrap;html=1;fontSize=12;fontStyle=0" vertex="1" parent="19">
                    <mxGeometry y="150" width="150" height="30" as="geometry"/>
                </mxCell>
                <mxCell id="25" value="firstname : string" style="text;strokeColor=none;fillColor=none;align=left;verticalAlign=middle;spacingLeft=4;spacingRight=4;overflow=hidden;points=[[0,0.5],[1,0.5]];portConstraint=eastwest;rotatable=0;whiteSpace=wrap;html=1;fontSize=12;fontStyle=0" vertex="1" parent="19">
                    <mxGeometry y="180" width="150" height="30" as="geometry"/>
                </mxCell>
                <mxCell id="26" value="lastname : string" style="text;strokeColor=none;fillColor=none;align=left;verticalAlign=middle;spacingLeft=4;spacingRight=4;overflow=hidden;points=[[0,0.5],[1,0.5]];portConstraint=eastwest;rotatable=0;whiteSpace=wrap;html=1;fontSize=12;fontStyle=0" vertex="1" parent="19">
                    <mxGeometry y="210" width="150" height="30" as="geometry"/>
                </mxCell>
                <mxCell id="27" value="gender : string" style="text;strokeColor=none;fillColor=none;align=left;verticalAlign=middle;spacingLeft=4;spacingRight=4;overflow=hidden;points=[[0,0.5],[1,0.5]];portConstraint=eastwest;rotatable=0;whiteSpace=wrap;html=1;fontSize=12;fontStyle=0" vertex="1" parent="19">
                    <mxGeometry y="240" width="150" height="30" as="geometry"/>
                </mxCell>
                <mxCell id="28" value="email : string" style="text;strokeColor=none;fillColor=none;align=left;verticalAlign=middle;spacingLeft=4;spacingRight=4;overflow=hidden;points=[[0,0.5],[1,0.5]];portConstraint=eastwest;rotatable=0;whiteSpace=wrap;html=1;fontSize=12;fontStyle=0" vertex="1" parent="19">
                    <mxGeometry y="270" width="150" height="30" as="geometry"/>
                </mxCell>
                <mxCell id="29" value="phonenumber : string" style="text;strokeColor=none;fillColor=none;align=left;verticalAlign=middle;spacingLeft=4;spacingRight=4;overflow=hidden;points=[[0,0.5],[1,0.5]];portConstraint=eastwest;rotatable=0;whiteSpace=wrap;html=1;fontSize=12;fontStyle=0" vertex="1" parent="19">
                    <mxGeometry y="300" width="150" height="30" as="geometry"/>
                </mxCell>
                <mxCell id="30" value="date_of_birth : date" style="text;strokeColor=none;fillColor=none;align=left;verticalAlign=middle;spacingLeft=4;spacingRight=4;overflow=hidden;points=[[0,0.5],[1,0.5]];portConstraint=eastwest;rotatable=0;whiteSpace=wrap;html=1;fontSize=12;fontStyle=0" vertex="1" parent="19">
                    <mxGeometry y="330" width="150" height="30" as="geometry"/>
                </mxCell>
                <mxCell id="31" value="bank_details : string" style="text;strokeColor=none;fillColor=none;align=left;verticalAlign=middle;spacingLeft=4;spacingRight=4;overflow=hidden;points=[[0,0.5],[1,0.5]];portConstraint=eastwest;rotatable=0;whiteSpace=wrap;html=1;fontSize=12;fontStyle=0" vertex="1" parent="19">
                    <mxGeometry y="360" width="150" height="30" as="geometry"/>
                </mxCell>
                <mxCell id="95" value="SelectCustomer" style="rounded=0;whiteSpace=wrap;html=1;" vertex="1" parent="6">
                    <mxGeometry x="9.999999999999545" y="110" width="100" height="40" as="geometry"/>
                </mxCell>
                <mxCell id="96" value="CreateCustomer" style="rounded=0;whiteSpace=wrap;html=1;" vertex="1" parent="6">
                    <mxGeometry x="9.999999999999545" y="170" width="100" height="40" as="geometry"/>
                </mxCell>
                <mxCell id="97" value="CreatePrice" style="rounded=0;whiteSpace=wrap;html=1;" vertex="1" parent="6">
                    <mxGeometry x="9.999999999999545" y="285" width="100" height="40" as="geometry"/>
                </mxCell>
                <mxCell id="98" style="edgeStyle=orthogonalEdgeStyle;html=1;" edge="1" parent="6" source="95">
                    <mxGeometry relative="1" as="geometry">
                        <mxPoint x="-15.000000000000455" y="130" as="targetPoint"/>
                    </mxGeometry>
                </mxCell>
                <mxCell id="99" style="edgeStyle=orthogonalEdgeStyle;html=1;" edge="1" parent="6" source="96">
                    <mxGeometry relative="1" as="geometry">
                        <mxPoint x="-15.000000000000455" y="190" as="targetPoint"/>
                    </mxGeometry>
                </mxCell>
                <mxCell id="100" style="edgeStyle=orthogonalEdgeStyle;html=1;" edge="1" parent="6" source="97">
                    <mxGeometry relative="1" as="geometry">
                        <mxPoint x="-15.000000000000455" y="305" as="targetPoint"/>
                    </mxGeometry>
                </mxCell>
                <mxCell id="37" style="edgeStyle=orthogonalEdgeStyle;html=1;" edge="1" parent="2" source="35" target="12">
                    <mxGeometry relative="1" as="geometry"/>
                </mxCell>
                <mxCell id="41" style="edgeStyle=orthogonalEdgeStyle;html=1;" edge="1" parent="2" source="40" target="38">
                    <mxGeometry relative="1" as="geometry"/>
                </mxCell>
                <mxCell id="56" style="edgeStyle=orthogonalEdgeStyle;html=1;" edge="1" parent="2" source="9" target="11">
                    <mxGeometry relative="1" as="geometry"/>
                </mxCell>
                <mxCell id="73" style="edgeStyle=orthogonalEdgeStyle;html=1;" edge="1" parent="2" source="72" target="70">
                    <mxGeometry relative="1" as="geometry"/>
                </mxCell>
                <mxCell id="7" style="edgeStyle=none;html=1;" parent="1" source="8" target="4" edge="1">
                    <mxGeometry relative="1" as="geometry"/>
                </mxCell>
                <mxCell id="8" value="Advisor" style="shape=umlActor;verticalLabelPosition=bottom;verticalAlign=top;html=1;outlineConnect=0;" parent="1" vertex="1">
                    <mxGeometry x="130" y="100" width="30" height="60" as="geometry"/>
                </mxCell>
                <mxCell id="42" value="Customer" style="swimlane;childLayout=stackLayout;resizeParent=1;resizeParentMax=0;startSize=20;html=1;" vertex="1" parent="1">
                    <mxGeometry x="990" y="50" width="660" height="160" as="geometry"/>
                </mxCell>
                <mxCell id="43" value="Controller" style="swimlane;startSize=20;html=1;" vertex="1" parent="42">
                    <mxGeometry y="20" width="120" height="140" as="geometry"/>
                </mxCell>
                <mxCell id="45" value="Business Logic" style="swimlane;startSize=20;html=1;" vertex="1" parent="42">
                    <mxGeometry x="120" y="20" width="300" height="140" as="geometry"/>
                </mxCell>
                <mxCell id="49" value="SelectCustomer" style="rounded=0;whiteSpace=wrap;html=1;" vertex="1" parent="45">
                    <mxGeometry x="10" y="30" width="100" height="40" as="geometry"/>
                </mxCell>
                <mxCell id="55" style="edgeStyle=orthogonalEdgeStyle;html=1;" edge="1" parent="45" source="52" target="54">
                    <mxGeometry relative="1" as="geometry"/>
                </mxCell>
                <mxCell id="52" value="CreateCustomer" style="rounded=0;whiteSpace=wrap;html=1;" vertex="1" parent="45">
                    <mxGeometry x="10" y="85" width="100" height="40" as="geometry"/>
                </mxCell>
                <mxCell id="54" value="CreateDeviceManager" style="rounded=0;whiteSpace=wrap;html=1;" vertex="1" parent="45">
                    <mxGeometry x="130" y="85" width="130" height="40" as="geometry"/>
                </mxCell>
                <mxCell id="91" value="Repository" style="swimlane;startSize=20;html=1;" vertex="1" parent="42">
                    <mxGeometry x="420" y="20" width="120" height="140" as="geometry"/>
                </mxCell>
                <mxCell id="46" value="Model" style="swimlane;startSize=20;html=1;" vertex="1" parent="42">
                    <mxGeometry x="540" y="20" width="120" height="140" as="geometry"/>
                </mxCell>
                <mxCell id="51" style="edgeStyle=orthogonalEdgeStyle;html=1;" edge="1" parent="1" source="19" target="49">
                    <mxGeometry relative="1" as="geometry">
                        <Array as="points">
                            <mxPoint x="900" y="120"/>
                            <mxPoint x="900" y="120"/>
                        </Array>
                    </mxGeometry>
                </mxCell>
                <mxCell id="53" style="edgeStyle=orthogonalEdgeStyle;html=1;" edge="1" parent="1" source="19" target="52">
                    <mxGeometry relative="1" as="geometry">
                        <Array as="points">
                            <mxPoint x="1020" y="180"/>
                            <mxPoint x="1020" y="180"/>
                        </Array>
                    </mxGeometry>
                </mxCell>
                <mxCell id="57" value="DeviceManager" style="swimlane;childLayout=stackLayout;resizeParent=1;resizeParentMax=0;startSize=20;html=1;" vertex="1" parent="1">
                    <mxGeometry x="990" y="240" width="670" height="180" as="geometry"/>
                </mxCell>
                <mxCell id="58" value="Controller" style="swimlane;startSize=20;html=1;" vertex="1" parent="57">
                    <mxGeometry y="20" width="120" height="160" as="geometry"/>
                </mxCell>
                <mxCell id="59" value="Business Logic" style="swimlane;startSize=20;html=1;" vertex="1" parent="57">
                    <mxGeometry x="120" y="20" width="270" height="160" as="geometry"/>
                </mxCell>
                <mxCell id="63" value="CreateDeviceManager" style="rounded=0;whiteSpace=wrap;html=1;" vertex="1" parent="59">
                    <mxGeometry x="10" y="35" width="130" height="40" as="geometry"/>
                </mxCell>
                <mxCell id="92" value="Repository" style="swimlane;startSize=20;html=1;" vertex="1" parent="57">
                    <mxGeometry x="390" y="20" width="120" height="160" as="geometry"/>
                </mxCell>
                <mxCell id="64" value="Model" style="swimlane;startSize=20;html=1;" vertex="1" parent="57">
                    <mxGeometry x="510" y="20" width="160" height="160" as="geometry"/>
                </mxCell>
                <mxCell id="65" value="device_manager" style="swimlane;fontStyle=0;childLayout=stackLayout;horizontal=1;startSize=30;horizontalStack=0;resizeParent=1;resizeParentMax=0;resizeLast=0;collapsible=1;marginBottom=0;whiteSpace=wrap;html=1;fontSize=12;" vertex="1" parent="64">
                    <mxGeometry x="10" y="35" width="140" height="120" as="geometry"/>
                </mxCell>
                <mxCell id="66" value="id : int" style="text;strokeColor=none;fillColor=none;align=left;verticalAlign=middle;spacingLeft=4;spacingRight=4;overflow=hidden;points=[[0,0.5],[1,0.5]];portConstraint=eastwest;rotatable=0;whiteSpace=wrap;html=1;fontSize=12;fontStyle=1" vertex="1" parent="65">
                    <mxGeometry y="30" width="140" height="30" as="geometry"/>
                </mxCell>
                <mxCell id="67" value="customer_id : int" style="text;strokeColor=none;fillColor=none;align=left;verticalAlign=middle;spacingLeft=4;spacingRight=4;overflow=hidden;points=[[0,0.5],[1,0.5]];portConstraint=eastwest;rotatable=0;whiteSpace=wrap;html=1;fontSize=12;fontStyle=0" vertex="1" parent="65">
                    <mxGeometry y="60" width="140" height="30" as="geometry"/>
                </mxCell>
                <mxCell id="68" value="status : device_status" style="text;strokeColor=none;fillColor=none;align=left;verticalAlign=middle;spacingLeft=4;spacingRight=4;overflow=hidden;points=[[0,0.5],[1,0.5]];portConstraint=eastwest;rotatable=0;whiteSpace=wrap;html=1;fontSize=12;fontStyle=0" vertex="1" parent="65">
                    <mxGeometry y="90" width="140" height="30" as="geometry"/>
                </mxCell>
                <mxCell id="69" style="edgeStyle=orthogonalEdgeStyle;html=1;" edge="1" parent="57" source="65" target="63">
                    <mxGeometry relative="1" as="geometry">
                        <Array as="points">
                            <mxPoint x="360" y="75"/>
                            <mxPoint x="360" y="75"/>
                        </Array>
                    </mxGeometry>
                </mxCell>
                <mxCell id="74" value="Price" style="swimlane;childLayout=stackLayout;resizeParent=1;resizeParentMax=0;startSize=20;html=1;" vertex="1" parent="1">
                    <mxGeometry x="990" y="440" width="630" height="220" as="geometry"/>
                </mxCell>
                <mxCell id="75" value="Controller" style="swimlane;startSize=20;html=1;" vertex="1" parent="74">
                    <mxGeometry y="20" width="120" height="200" as="geometry"/>
                </mxCell>
                <mxCell id="76" value="Business Logic" style="swimlane;startSize=20;html=1;" vertex="1" parent="74">
                    <mxGeometry x="120" y="20" width="270" height="200" as="geometry"/>
                </mxCell>
                <mxCell id="77" value="CreatePrice" style="rounded=0;whiteSpace=wrap;html=1;" vertex="1" parent="76">
                    <mxGeometry x="10" y="35" width="130" height="40" as="geometry"/>
                </mxCell>
                <mxCell id="93" value="Repository" style="swimlane;startSize=20;html=1;" vertex="1" parent="74">
                    <mxGeometry x="390" y="20" width="120" height="200" as="geometry"/>
                </mxCell>
                <mxCell id="78" value="Model" style="swimlane;startSize=20;html=1;" vertex="1" parent="74">
                    <mxGeometry x="510" y="20" width="120" height="200" as="geometry"/>
                </mxCell>
                <mxCell id="84" value="price" style="swimlane;fontStyle=0;childLayout=stackLayout;horizontal=1;startSize=30;horizontalStack=0;resizeParent=1;resizeParentMax=0;resizeLast=0;collapsible=1;marginBottom=0;whiteSpace=wrap;html=1;fontSize=12;" vertex="1" parent="78">
                    <mxGeometry x="10" y="35" width="100" height="150" as="geometry"/>
                </mxCell>
                <mxCell id="85" value="id : int" style="text;strokeColor=none;fillColor=none;align=left;verticalAlign=middle;spacingLeft=4;spacingRight=4;overflow=hidden;points=[[0,0.5],[1,0.5]];portConstraint=eastwest;rotatable=0;whiteSpace=wrap;html=1;fontSize=12;fontStyle=1" vertex="1" parent="84">
                    <mxGeometry y="30" width="100" height="30" as="geometry"/>
                </mxCell>
                <mxCell id="86" value="customer_id : int" style="text;strokeColor=none;fillColor=none;align=left;verticalAlign=middle;spacingLeft=4;spacingRight=4;overflow=hidden;points=[[0,0.5],[1,0.5]];portConstraint=eastwest;rotatable=0;whiteSpace=wrap;html=1;fontSize=12;fontStyle=0" vertex="1" parent="84">
                    <mxGeometry y="60" width="100" height="30" as="geometry"/>
                </mxCell>
                <mxCell id="87" value="price : double" style="text;strokeColor=none;fillColor=none;align=left;verticalAlign=middle;spacingLeft=4;spacingRight=4;overflow=hidden;points=[[0,0.5],[1,0.5]];portConstraint=eastwest;rotatable=0;whiteSpace=wrap;html=1;fontSize=12;fontStyle=0" vertex="1" parent="84">
                    <mxGeometry y="90" width="100" height="30" as="geometry"/>
                </mxCell>
                <mxCell id="88" value="date : date" style="text;strokeColor=none;fillColor=none;align=left;verticalAlign=middle;spacingLeft=4;spacingRight=4;overflow=hidden;points=[[0,0.5],[1,0.5]];portConstraint=eastwest;rotatable=0;whiteSpace=wrap;html=1;fontSize=12;fontStyle=0" vertex="1" parent="84">
                    <mxGeometry y="120" width="100" height="30" as="geometry"/>
                </mxCell>
                <mxCell id="83" style="edgeStyle=orthogonalEdgeStyle;html=1;" edge="1" parent="74" source="84" target="77">
                    <mxGeometry relative="1" as="geometry">
                        <Array as="points">
                            <mxPoint x="370" y="75"/>
                            <mxPoint x="370" y="75"/>
                        </Array>
                        <mxPoint x="400" y="75" as="sourcePoint"/>
                    </mxGeometry>
                </mxCell>
                <mxCell id="106" value="" style="ellipse;fillColor=strokeColor;" vertex="1" parent="1">
                    <mxGeometry x="130" y="465" width="30" height="30" as="geometry"/>
                </mxCell>
                <mxCell id="107" style="edgeStyle=orthogonalEdgeStyle;html=1;entryX=1;entryY=0.5;entryDx=0;entryDy=0;" edge="1" parent="1" source="103" target="106">
                    <mxGeometry relative="1" as="geometry"/>
                </mxCell>
            </root>
        </mxGraphModel>
    </diagram>
</mxfile>